<svg id="Layer_1" data-name="Layer 1" xmlns="http://www.w3.org/2000/svg" viewBox="0 0 139.6 157.2"><defs><style>.cls-1{fill:#0166ff;}.cls-2{fill:#fff;}</style></defs><title>logo2svg</title><polygon class="cls-1" points="0 0 0 157.2 139.6 125.7 139.6 0 0 0"/><path class="cls-2" d="M51.7,90.3l-8.6,18.9H33L69,30.7l35.9,78.5H94.8L86.2,90.3ZM68.9,51.2,55.6,81.7H82.4Z" transform="translate(-9.4 -7)"/><path class="cls-2" d="M89.6,39.4h2.7c4.1,0,7.8.4,10.7,1.7h12.6c-4.7-8.4-15.2-10.5-26.2-10.5H73.1l4.7,10.5H89.6Z" transform="translate(-9.4 -7)"/><polygon class="cls-2" points="80.2 47.7 80.2 37.2 69.8 37.2 74.6 47.7 80.2 47.7"/><path class="cls-2" d="M108.8,54.7h9.1a22.86,22.86,0,0,0,.2-2.5,24.05,24.05,0,0,0-1.2-8H106.8c1.4,1.9,2.2,4.5,2.2,8.1A19.42,19.42,0,0,1,108.8,54.7Z" transform="translate(-9.4 -7)"/><path class="cls-2" d="M113.1,68.3a13.31,13.31,0,0,0-3.4-1v-.2c3.6-1.7,6.2-5.3,7.5-9.2h-9c-2.2,6.3-8.6,7.6-16,7.6H89.7V57.9H85.5l4.7,10.5h22.9Z" transform="translate(-9.4 -7)"/><path class="cls-2" d="M91.6,71.4h26.6a20.62,20.62,0,0,1,6.5,10.5h-9.9c-2.7-7.1-11.8-8.7-19.2-8.7H92.3Z" transform="translate(-9.4 -7)"/><path class="cls-2" d="M112.4,95.5h11.4a21.68,21.68,0,0,0,1.6-8.4,14.92,14.92,0,0,0-.2-2.1h-9.7a7.57,7.57,0,0,1,.1,1.5C115.6,90.6,114.4,93.5,112.4,95.5Z" transform="translate(-9.4 -7)"/><path class="cls-2" d="M107.7,98.7a20.74,20.74,0,0,1-3.3,1l3.7,8.3c5.9-1.5,11.1-4.5,14.2-9.3Z" transform="translate(-9.4 -7)"/></svg>